<svg width="100" height="141" viewBox="0 0 100 141" fill="none" xmlns="http://www.w3.org/2000/svg">
<path d="M5.87013 116.85C4.00626 114.989 2.52811 112.779 1.52077 110.345C0.513431 107.912 -0.00337069 105.304 1.65431e-05 102.67V59.54C0.000519469 64.6869 1.9764 69.6373 5.52004 73.37L5.69997 73.55L5.87013 73.72L31.99 95.33V136.83C31.99 140.21 30.0399 141.02 27.6499 138.63L5.87013 116.85Z" fill="url(#paint0_linear_8_731)"/>
<path d="M31.99 32V11.46C31.9926 8.42141 33.2008 5.50811 35.3494 3.35951C37.498 1.21092 40.4114 0.00266453 43.45 1.65431e-05H59.54C62.1737 -0.00337069 64.7819 0.513431 67.2153 1.52077C69.6487 2.52811 71.8593 4.00614 73.72 5.87001L93.97 26.13C95.8327 27.9895 97.3101 30.1983 98.3174 32.6299C99.3247 35.0615 99.8422 37.6681 99.8401 40.3001V43.45C99.8401 41.9463 99.5439 40.4574 98.9685 39.0683C98.3931 37.6791 97.5496 36.4169 96.4863 35.3537C95.4231 34.2904 94.1609 33.447 92.7717 32.8716C91.3826 32.2962 89.8935 32 88.3899 32H31.99Z" fill="url(#paint1_linear_8_731)"/>
<path d="M11.45 67.85C8.41231 67.8473 5.50004 66.6387 3.35303 64.4899C1.20603 62.341 5.03192e-06 59.4277 6.1884e-06 56.39V40.3C-0.00206425 37.6681 0.515412 35.0615 1.52271 32.6299C2.53001 30.1983 4.00744 27.9895 5.87012 26.13L26.1201 5.87C29.8874 2.11946 34.9841 0.00959377 40.3001 0H43.45C40.4114 0.00264799 37.498 1.2109 35.3494 3.3595C33.2008 5.50809 31.9926 8.42139 31.99 11.46V67.85H11.45Z" fill="url(#paint2_linear_8_731)"/>
<path d="M56.3899 99.85C57.8948 99.85 59.3852 99.5536 60.7756 98.9777C62.166 98.4017 63.4292 97.5576 64.4934 96.4934C65.5576 95.4292 66.4016 94.1659 66.9775 92.7755C67.5535 91.3851 67.8501 89.895 67.8501 88.39V32H88.3899C89.8935 32 91.3826 32.2962 92.7717 32.8716C94.1609 33.447 95.4231 34.2904 96.4863 35.3536C97.5496 36.4169 98.3931 37.6791 98.9685 39.0682C99.5439 40.4574 99.8401 41.9463 99.8401 43.45V59.54C99.8435 62.1737 99.3267 64.7821 98.3193 67.2155C97.312 69.6489 95.8338 71.8593 93.97 73.72L73.72 94C69.9574 97.7588 64.8585 99.8732 59.54 99.88L56.3899 99.85Z" fill="url(#paint3_linear_8_731)"/>
<path d="M1.80006 68.46C0.611373 65.851 -0.00254621 63.017 7.93707e-06 60.15V57C6.78059e-06 60.0376 1.20603 62.951 3.35304 65.0999C5.50004 67.2487 8.41231 68.4573 11.45 68.46H67.8501V89C67.8501 90.5049 67.5535 91.9951 66.9775 93.3855C66.4016 94.7759 65.5576 96.0392 64.4934 97.1034C63.4293 98.1676 62.166 99.0117 60.7756 99.5876C59.3853 100.164 57.8948 100.46 56.3899 100.46H40.3001C34.9807 100.458 29.8802 98.3425 26.1201 94.58L5.69996 74.16L5.52003 73.98C3.98171 72.3596 2.72448 70.494 1.80006 68.46V68.46Z" fill="url(#paint4_linear_8_731)"/>
<defs>
<linearGradient id="paint0_linear_8_731" x1="25.4" y1="90.97" x2="1.27002" y2="112.12" gradientUnits="userSpaceOnUse">
<stop stop-color="#19829C"/>
<stop offset="0.51" stop-color="#5AD172"/>
<stop offset="1" stop-color="#B1FC7C"/>
</linearGradient>
<linearGradient id="paint1_linear_8_731" x1="32" y1="18" x2="99.8866" y2="20.536" gradientUnits="userSpaceOnUse">
<stop stop-color="#19829C"/>
<stop offset="0.51" stop-color="#5AD172"/>
<stop offset="1" stop-color="#B1FC7C"/>
</linearGradient>
<linearGradient id="paint2_linear_8_731" x1="36.5" y1="68" x2="35" y2="-1.43202e-06" gradientUnits="userSpaceOnUse">
<stop stop-color="#19829C"/>
<stop offset="0.51" stop-color="#5AD172"/>
<stop offset="1" stop-color="#B1FC7C"/>
</linearGradient>
<linearGradient id="paint3_linear_8_731" x1="78" y1="32" x2="78.0013" y2="97.5" gradientUnits="userSpaceOnUse">
<stop stop-color="#19829C"/>
<stop offset="0.51" stop-color="#5AD172"/>
<stop offset="1" stop-color="#B1FC7C"/>
</linearGradient>
<linearGradient id="paint4_linear_8_731" x1="68" y1="78.61" x2="-4.91734e-07" y2="78.61" gradientUnits="userSpaceOnUse">
<stop stop-color="#19829C"/>
<stop offset="0.51" stop-color="#5AD172"/>
<stop offset="1" stop-color="#B1FC7C"/>
</linearGradient>
</defs>
</svg>
